name GIL01_free4.mot
datacolumns 153
datarows 4
range 0.40000001 0.42499998
endheader

                time	           pelvis_tx	           pelvis_ty	           pelvis_tz	         pelvis_tilt	         pelvis_list	     pelvis_rotation	       hip_flexion_r	     hip_adduction_r	      hip_rotation_r	        knee_angle_r	       ankle_angle_r	    subtalar_angle_r	         mtp_angle_r	       hip_flexion_l	     hip_adduction_l	      hip_rotation_l	        knee_angle_l	       ankle_angle_l	    subtalar_angle_l	         mtp_angle_l	    lumbar_extension	      lumbar_bending	     lumbar_rotation	     ground_force_vx	     ground_force_vy	     ground_force_vz	     ground_force_px	     ground_force_py	     ground_force_pz	     ground_force_vx	     ground_force_vy	     ground_force_vz	     ground_force_px	     ground_force_py	     ground_force_pz	     ground_torque_x	     ground_torque_y	     ground_torque_z	     ground_torque_x	     ground_torque_y	     ground_torque_z	    ground_marker_px	    ground_marker_py	    ground_marker_pz	    ground_marker_px	    ground_marker_py	    ground_marker_pz	    ground_marker_px	    ground_marker_py	    ground_marker_pz	    ground_marker_px	    ground_marker_py	    ground_marker_pz	    ground_marker_px	    ground_marker_py	    ground_marker_pz	    ground_marker_px	    ground_marker_py	    ground_marker_pz	    ground_marker_px	    ground_marker_py	    ground_marker_pz	    ground_marker_px	    ground_marker_py	    ground_marker_pz	    ground_marker_px	    ground_marker_py	    ground_marker_pz	    ground_marker_px	    ground_marker_py	    ground_marker_pz	    ground_marker_px	    ground_marker_py	    ground_marker_pz	    ground_marker_px	    ground_marker_py	    ground_marker_pz	    ground_marker_px	    ground_marker_py	    ground_marker_pz	    ground_marker_px	    ground_marker_py	    ground_marker_pz	    ground_marker_px	    ground_marker_py	    ground_marker_pz	    ground_marker_px	    ground_marker_py	    ground_marker_pz	    ground_marker_px	    ground_marker_py	    ground_marker_pz	    ground_marker_px	    ground_marker_py	    ground_marker_pz	    ground_marker_px	    ground_marker_py	    ground_marker_pz	    ground_marker_px	    ground_marker_py	    ground_marker_pz	    ground_marker_px	    ground_marker_py	    ground_marker_pz	    ground_marker_px	    ground_marker_py	    ground_marker_pz	    ground_marker_px	    ground_marker_py	    ground_marker_pz	    ground_marker_px	    ground_marker_py	    ground_marker_pz	    ground_marker_px	    ground_marker_py	    ground_marker_pz	    ground_marker_px	    ground_marker_py	    ground_marker_pz	    ground_marker_px	    ground_marker_py	    ground_marker_pz	    ground_marker_px	    ground_marker_py	    ground_marker_pz	    ground_marker_px	    ground_marker_py	    ground_marker_pz	    ground_marker_px	    ground_marker_py	    ground_marker_pz	    ground_marker_px	    ground_marker_py	    ground_marker_pz	    ground_marker_px	    ground_marker_py	    ground_marker_pz	    ground_marker_px	    ground_marker_py	    ground_marker_pz	    ground_marker_px	    ground_marker_py	    ground_marker_pz	    ground_marker_px	    ground_marker_py	    ground_marker_pz	    ground_marker_px	    ground_marker_py	    ground_marker_pz	    ground_marker_px	    ground_marker_py	    ground_marker_pz	
          0.40000001	          0.24333242	          0.81281960	         -0.31025767	         -2.05775070	          0.28216204	         -1.74051607	         26.50232697	         -0.51122314	          1.47120321	        -36.34046936	         -2.53810740	          0.00000000	          0.00000000	         -2.60109520	          3.15845418	         -6.23910809	         -2.47937679	          6.39190435	          0.00000000	          0.00000000	         -9.41879749	          3.71520829	         -4.05891514	          0.00000000	          0.00000000	          0.00000000	          0.58616467	          0.00000000	         -0.22990628	         17.77472926	        365.29917433	         16.55748385	          0.13031619	          0.00000000	         -0.36195868	          0.00000000	          0.00000000	          0.00000000	          0.00000000	         -0.49694897	          0.00000000	          0.18728197	          0.74894488	         -0.31887138	          0.17091131	          0.74421930	         -0.24711184	          0.17490666	          0.74388015	         -0.37736562	          0.31403986	          0.42891350	         -0.23880865	          0.14840357	          0.42563230	         -0.35971937	          0.24541502	          0.10325137	         -0.24536447	          0.10236141	          0.06915465	         -0.34885696	          0.24333242	          0.81281960	         -0.31025767	          0.24024977	          0.81308126	         -0.20975897	          0.24641508	          0.81255788	         -0.41075638	          0.08516040	          0.85234553	         -0.28145435	          0.08273869	          0.85310072	         -0.33680451	          0.31343633	          0.43008751	         -0.18382448	          0.14391884	          0.42299765	         -0.41397059	          0.33081487	          0.42697033	         -0.27749848	          0.14422642	          0.40567261	         -0.31773624	          0.23468937	          0.10478881	         -0.20946395	          0.09574051	          0.06890057	         -0.38525888	          0.25248590	          0.10721601	         -0.26860669	          0.10224506	          0.06848647	         -0.31878540	          0.12603444	          1.22337604	         -0.32270554	          0.22864021	          1.16100633	         -0.27003235	          0.23722765	          1.16461802	         -0.34589279	          0.21845248	          1.16197467	         -0.31104726	          0.24477594	          1.07912517	         -0.30958879	          0.36551678	          0.58155733	         -0.12686503	          0.30650342	          0.53558284	         -0.38502872	          0.27230826	          0.59723330	         -0.16061492	          0.24055870	          0.59920973	         -0.41822311	          0.31031784	          0.52168387	         -0.17278415	          0.22108847	          0.51454079	         -0.41103420	          0.23754117	          0.21635744	         -0.13084175	          0.12844113	          0.18649012	         -0.46407357	          0.24172097	          0.18173024	         -0.20738265	          0.10487317	          0.15297991	         -0.39191610	          0.32669225	          0.05424656	         -0.21690024	          0.20124526	          0.03703780	         -0.36362535	
          0.40833333	          0.25114304	          0.81207883	         -0.31052634	         -2.03198338	          0.17595646	         -1.55033851	         26.87741852	         -0.22499272	          1.11986148	        -34.05294418	         -2.21313953	          0.00000000	          0.00000000	         -3.42651463	          3.09358597	         -6.44714212	         -2.14879942	          6.80288887	          0.00000000	          0.00000000	         -9.47932911	          3.65461016	         -3.66614890	          0.00000000	          0.00000000	          0.00000000	          0.58830603	          0.00000000	         -0.22967709	         19.00444347	        367.00239000	         16.78184773	          0.13446582	          0.00000000	         -0.36247827	          0.00000000	          0.00000000	          0.00000000	          0.00000000	         -0.59009015	          0.00000000	          0.19523612	          0.74830151	         -0.31890222	          0.17898604	          0.74350792	         -0.24704716	          0.18250354	          0.74304122	         -0.37731433	          0.32463998	          0.42869198	         -0.24062333	          0.15165080	          0.42529276	         -0.35974789	          0.27109832	          0.09850593	         -0.24374941	          0.10269351	          0.06901179	         -0.34889930	          0.25114304	          0.81207883	         -0.31052634	          0.24843054	          0.81243873	         -0.21007140	          0.25385556	          0.81171888	         -0.41098130	          0.09309170	          0.85153180	         -0.28109190	          0.09044363	          0.85227704	         -0.33640173	          0.32404014	          0.42953652	         -0.18563308	          0.14674267	          0.42277181	         -0.41396788	          0.33896896	          0.42612591	         -0.27949134	          0.14791238	          0.40593034	         -0.31711647	          0.26076719	          0.09984013	         -0.20772529	          0.09582690	          0.06884829	         -0.38525617	          0.27759999	          0.10254640	         -0.26713714	          0.10267892	          0.06833447	         -0.31883773	          0.13385619	          1.22261703	         -0.32290605	          0.23670495	          1.16034460	         -0.27023429	          0.24447559	          1.16389561	         -0.34604770	          0.22607699	          1.16128063	         -0.31107172	          0.25241309	          1.07843161	         -0.30983266	          0.37450397	          0.58088136	         -0.12836254	          0.31138262	          0.53356588	         -0.38615617	          0.28130966	          0.59638584	         -0.16206163	          0.24615240	          0.59816122	         -0.41847646	          0.31908619	          0.52059972	         -0.17451824	          0.22538701	          0.51360595	         -0.41114900	          0.25932652	          0.21214209	         -0.12988573	          0.12898806	          0.18639193	         -0.46409267	          0.26388133	          0.17685841	         -0.20596427	          0.10560842	          0.15306842	         -0.39175856	          0.35519466	          0.05416360	         -0.21636383	          0.20132188	          0.03686101	         -0.36396542	
          0.41666666	          0.25900978	          0.81123012	         -0.31077105	         -2.02658558	          0.07799289	         -1.34944010	         27.20275497	          0.04598143	          0.72868437	        -31.52941704	         -2.28759217	          0.00000000	          0.00000000	         -4.19236231	          3.02898049	         -6.71856976	         -1.89056730	          7.23500919	          0.00000000	          0.00000000	         -9.86586571	          4.06122684	         -3.97319436	          0.00000000	          0.00000000	          0.00000000	          0.59038269	          0.00000000	         -0.22940186	         20.16762375	        368.57923241	         17.12926196	          0.13887326	          0.00000000	         -0.36304260	          0.00000000	          0.00000000	          0.00000000	          0.00000000	         -0.67582251	          0.00000000	          0.20307648	          0.74737251	         -0.31883025	          0.18710263	          0.74270344	         -0.24696152	          0.19012305	          0.74213165	         -0.37724075	          0.33484885	          0.42827889	         -0.24243510	          0.15514383	          0.42490914	         -0.35976556	          0.29766059	          0.09444896	         -0.24208739	          0.10305460	          0.06889053	         -0.34893534	          0.25900978	          0.81123012	         -0.31077105	          0.25668108	          0.81167096	         -0.21032766	          0.26133847	          0.81078929	         -0.41121444	          0.10111464	          0.85066414	         -0.28071028	          0.09827174	          0.85139054	         -0.33597660	          0.33422583	          0.42877784	         -0.18744090	          0.14974983	          0.42251927	         -0.41394529	          0.35653067	          0.42888972	         -0.28183702	          0.15178539	          0.40546733	         -0.31734017	          0.28753901	          0.09561408	         -0.20599797	          0.09594797	          0.06882570	         -0.38524637	          0.30289808	          0.09836483	         -0.26565468	          0.10295466	          0.06834045	         -0.31881702	          0.14172794	          1.22182286	         -0.32305327	          0.24342118	          1.15893710	         -0.27023676	          0.25144622	          1.16284096	         -0.34613436	          0.23292388	          1.16015780	         -0.31116199	          0.25872642	          1.07713664	         -0.31028241	          0.38323647	          0.57985574	         -0.12980860	          0.31644803	          0.53155369	         -0.38746244	          0.28986809	          0.59537393	         -0.16317302	          0.25172332	          0.59679627	         -0.41887540	          0.33137235	          0.52081001	         -0.17610000	          0.22983375	          0.51239008	         -0.41167378	          0.28099865	          0.20833993	         -0.12896542	          0.12965097	          0.18629432	         -0.46409181	          0.28636846	          0.17255412	         -0.20489955	          0.10637966	          0.15305315	         -0.39154252	          0.38360065	          0.05473676	         -0.21566720	          0.20141068	          0.03668728	         -0.36427602	
          0.42499998	          0.26701826	          0.81028849	         -0.31100628	         -2.03549385	         -0.02082049	         -1.09957623	         27.44705582	          0.27932307	          0.28794995	        -28.90484428	         -2.26625919	          0.00000000	          0.00000000	         -4.91813326	          2.95234966	         -6.98918724	         -1.69489062	          7.68559265	          0.00000000	          0.00000000	         -9.40977001	          3.81845045	         -3.98843741	          0.00000000	          0.00000000	          0.00000000	          0.59236444	          0.00000000	         -0.22913281	         21.19605931	        369.94998161	         17.63646429	          0.14353354	          0.00000000	         -0.36365298	          0.00000000	          0.00000000	          0.00000000	          0.00000000	         -0.75390204	          0.00000000	          0.21102579	          0.74639356	         -0.31865752	          0.19539812	          0.74181217	         -0.24682094	          0.19781274	          0.74115974	         -0.37711242	          0.34464321	          0.42765307	         -0.24417789	          0.15886599	          0.42446932	         -0.35978702	          0.32405093	          0.09089424	         -0.24038734	          0.10343716	          0.06881051	         -0.34896061	          0.26701826	          0.81028849	         -0.31100628	          0.26515657	          0.81079149	         -0.21055114	          0.26887992	          0.80978549	         -0.41146141	          0.10923112	          0.84975803	         -0.28030017	          0.10622878	          0.85046095	         -0.33553082	          0.34398881	          0.42780486	         -0.18918200	          0.15294787	          0.42223573	         -0.41391867	          0.36221898	          0.42835143	         -0.28487810	          0.15635523	          0.40440884	         -0.31803730	          0.31414175	          0.09190711	         -0.20423442	          0.09609742	          0.06885048	         -0.38522527	          0.32821372	          0.09471854	         -0.26409498	          0.10316362	          0.06842984	         -0.31875992	          0.14967267	          1.22089863	         -0.32314119	          0.25290760	          1.15851152	         -0.27027175	          0.26049519	          1.16209209	         -0.34613109	          0.24218163	          1.15945351	         -0.31109726	          0.26857606	          1.07662165	         -0.30994722	          0.39173394	          0.57848942	         -0.13125183	          0.32168767	          0.52953994	         -0.38887897	          0.29799694	          0.59419674	         -0.16394018	          0.25709802	          0.59534979	         -0.41946277	          0.33883339	          0.51939410	         -0.17801517	          0.23454890	          0.51114094	         -0.41249517	          0.30251151	          0.20493950	         -0.12809522	          0.13042311	          0.18620045	         -0.46407786	          0.30870071	          0.16890928	         -0.20374525	          0.10726440	          0.15302412	         -0.39131421	          0.41181472	          0.05594013	         -0.21486354	          0.20151000	          0.03653053	         -0.36453795	
